<svg width="417" height="132" viewBox="0 0 417 132" fill="none" xmlns="http://www.w3.org/2000/svg">
<path d="M376 78.5903C376 107.458 352.282 131 320.407 131C288.532 131 265 107.458 265 78.5903C265 49.7223 288.718 26 320.407 26C352.096 26 376 49.5417 376 78.5903ZM350.735 78.5903C350.735 62.5915 340.237 47.6961 320.407 47.6961C300.577 47.6961 290.275 62.5915 290.275 78.5903C290.275 94.589 300.773 109.294 320.407 109.294C340.042 109.294 350.735 94.3985 350.735 78.5903Z" fill="#0A232E"/>
<path d="M382.99 127.326V130H374.484C373.665 130 373 129.381 373 128.62V116.38C373 115.619 373.665 115 374.484 115H382.795V117.674H375.528V123.157C376.531 121.653 378.036 120.949 379.387 120.93H381.762V123.499H379.755C377.831 123.499 375.538 124.442 375.538 127.316H383L382.99 127.326Z" fill="#0A232E"/>
<path d="M395 126.458C395 129.769 392.919 131 390.168 131C387.663 131 385 129.417 385 125.858H387.337C387.337 127.399 388.787 128.093 390.158 128.093C391.529 128.093 392.702 127.606 392.702 126.458C392.702 123.033 385.069 125.288 385.069 119.142C385.069 115.645 387.17 114 389.783 114C392.87 114 394.783 115.79 394.783 119.267H392.465C392.465 117.663 391.272 116.918 389.813 116.918C388.353 116.918 387.377 117.59 387.377 118.78C387.377 122.598 394.99 119.97 394.99 126.468L395 126.458Z" fill="#0A232E"/>
<path d="M397 130V115H400V130H397Z" fill="#0A232E"/>
<path d="M417 116.381V130H414.416V119.219L410.734 126.638H408.287L404.584 119.219V130H402V116.381C402 115.619 402.68 115 403.517 115H405.389L409.51 123.086L413.632 115H415.483C416.32 115 417 115.619 417 116.381Z" fill="#0A232E"/>
<path d="M186.46 2.28809C184.921 3.21688 183.809 4.34758 182.998 5.37732C182.291 6.28591 181.303 7.72957 180.544 9.66791C179.39 12.6057 179.598 14.5137 179.265 16.4319C178.298 22.1258 172.984 25.8106 172.153 26.3861C166.111 30.505 158.718 29.7681 157.148 29.6065C153.114 29.2027 150.421 27.8802 146.137 29.1018C145.804 29.1926 143.745 29.8488 141.905 31.0603C134.72 35.7749 132.838 45.2647 137.704 52.2608C142.57 59.257 152.344 61.1045 159.529 56.3899C161.401 55.1583 162.857 53.4622 162.992 53.3007C165.633 50.0196 165.529 47.0617 166.434 43.7705C166.642 43.0235 168.867 35.3307 175.002 31.5752C180.429 28.2436 187.479 28.8797 189.465 29.1219C192.949 29.5561 195.808 30.7675 199.874 29.5661C201.34 29.132 202.764 28.4859 204.095 27.6076C211.28 22.893 213.162 13.4032 208.296 6.40706C202.816 -1.46744 192.075 -1.104 186.471 2.278L186.46 2.28809Z" fill="#0A232E"/>
<path d="M152 72C144.265 72 138 78.1431 138 85.7269V118.273C138 125.857 144.265 132 152 132C159.735 132 166 125.857 166 118.273V85.7269C166 78.1431 159.735 72 152 72Z" fill="#0A232E"/>
<path d="M195 46C187.265 46 181 52.1464 181 59.7344V118.266C181 125.854 187.265 132 195 132C202.735 132 209 125.854 209 118.266V59.7344C209 52.1464 202.735 46 195 46Z" fill="#0A232E"/>
<path d="M238.5 0C230.489 0 224 6.18215 224 13.8142V118.186C224 125.818 230.489 132 238.5 132C246.511 132 253 125.818 253 118.186V13.8142C253 6.18215 246.511 0 238.5 0Z" fill="#0A232E"/>
<path d="M108.919 0H108.713C100.953 0 94.632 6.11167 94.632 13.6229V53.6458H80.7049C64.6503 53.6458 42.7679 57.7739 28.1522 77.0453V13.6229C28.1522 6.11167 21.8413 0 14.0812 0C6.32113 0 0 6.11167 0 13.6229V118.377C0 125.888 6.31085 132 14.0812 132H14.811C21.9647 132 27.9672 126.855 28.7791 120.018C33.2605 82.432 61.1557 77.6091 84.9499 77.6091H94.632V118.377C94.632 125.888 100.943 132 108.713 132H108.919C116.679 132 123 125.888 123 118.377V13.6229C123 6.11167 116.689 0 108.919 0Z" fill="#0A232E"/>
</svg>
