<svg xmlns="http://www.w3.org/2000/svg" version="1.1" xmlns:xlink="http://www.w3.org/1999/xlink" width="198" height="198"><svg width="198" height="198" viewBox="0 0 198 198" fill="none" xmlns="http://www.w3.org/2000/svg">
<circle cx="99" cy="99" r="99" fill="#00E095"></circle>
<path d="M92.0479 53.6077C90.9699 54.2603 90.1905 55.0548 89.6223 55.7783C89.127 56.4167 88.4351 57.4311 87.9034 58.793C87.0949 60.8572 87.2405 62.1979 87.0074 63.5456C86.33 67.5464 82.608 70.1355 82.0253 70.5398C77.7934 73.4339 72.6146 72.9161 71.5147 72.8026C68.6886 72.5189 66.8021 71.5896 63.8011 72.448C63.5681 72.5118 62.1259 72.9729 60.8366 73.8241C55.8035 77.1367 54.4851 83.8046 57.894 88.7204C61.3028 93.6362 68.1496 94.9343 73.1827 91.6216C74.4938 90.7562 75.5136 89.5645 75.6082 89.451C77.4583 87.1456 77.3855 85.0672 78.0192 82.7548C78.1649 82.2299 79.7236 76.8246 84.0211 74.1859C87.8232 71.845 92.7617 72.2919 94.1529 72.4621C96.593 72.7672 98.596 73.6184 101.444 72.7743C102.471 72.4692 103.469 72.0153 104.401 71.3981C109.434 68.0855 110.753 61.4176 107.344 56.5018C103.505 50.9689 95.9811 51.2243 92.0551 53.6006L92.0479 53.6077Z" fill="#0A232E"></path>
<path d="M67.9749 102.46C62.4537 102.46 57.9814 106.816 57.9814 112.193V135.268C57.9814 140.644 62.4537 145 67.9749 145C73.496 145 77.9683 140.644 77.9683 135.268V112.193C77.9683 106.816 73.496 102.46 67.9749 102.46Z" fill="#0A232E"></path>
<path d="M98.3557 84.0599C92.8346 84.0599 88.3623 88.4153 88.3623 93.7922V135.268C88.3623 140.645 92.8346 145 98.3557 145C103.877 145 108.349 140.645 108.349 135.268V93.7922C108.349 88.4153 103.877 84.0599 98.3557 84.0599Z" fill="#0A232E"></path>
<path d="M128.868 52.0046C123.346 52.0046 118.874 56.36 118.874 61.7369V135.268C118.874 140.645 123.346 145 128.868 145C134.389 145 138.861 140.645 138.861 135.268V61.7369C138.861 56.36 134.389 52.0046 128.868 52.0046Z" fill="#0A232E"></path>
</svg><style>@media (prefers-color-scheme: light) { :root { filter: none; } }
@media (prefers-color-scheme: dark) { :root { filter: none; } }
</style></svg>