<svg width="1920" height="1863" viewBox="0 0 1920 1863" fill="none" xmlns="http://www.w3.org/2000/svg">
<g clip-path="url(#clip0_134_2697)">
<rect width="1920" height="1863" rx="100" fill="#0A232E"/>
<path d="M-68.7062 639.274L-551.595 89.1725L343.419 -696.493L826.308 -146.392C611.394 -124.363 499.483 -46.7144 436.942 20.5699C302.37 165.342 331.747 331.587 170.817 492.822C88.2288 575.552 -4.79709 617.219 -68.7062 639.274Z" fill="#00E095"/>
<path d="M-105.755 555.988L-530.063 50.6729L294.269 -647.663L718.577 -142.348C524.133 -125.566 421.492 -56.8942 363.63 3.11915C239.127 132.247 262.153 283.239 113.513 426.887C37.232 500.593 -47.6078 536.957 -105.755 555.988Z" fill="#535FC8"/>
<path d="M2032.53 1131.51L2515.41 1681.62L1620.4 2467.28L1137.51 1917.18C1352.43 1895.15 1464.34 1817.5 1526.88 1750.22C1661.45 1605.45 1632.07 1439.2 1793 1277.97C1875.59 1195.24 1968.62 1153.57 2032.53 1131.51Z" fill="#00E095"/>
<path d="M2069.57 1214.8L2493.88 1720.12L1669.55 2418.45L1245.24 1913.14C1439.69 1896.35 1542.33 1827.68 1600.19 1767.67C1724.69 1638.54 1701.67 1487.55 1850.31 1343.9C1926.59 1270.2 2011.43 1233.83 2069.57 1214.8Z" fill="#535FC8"/>
</g>
<defs>
<clipPath id="clip0_134_2697">
<rect width="1920" height="1863" rx="100" fill="white"/>
</clipPath>
</defs>
</svg>
