<svg width="415" height="465" viewBox="0 0 415 465" fill="none" xmlns="http://www.w3.org/2000/svg">
<g clip-path="url(#clip0_134_2681)">
<path d="M0 1346L-9.73016e-05 -880L415 -880L415 1346L0 1346Z" fill="#0A232E"/>
<path d="M543 -8.46252L435.079 -282.573L-129.532 -143.88L-21.6116 130.23C43.3875 62.8346 105.265 41.2798 149.964 34.1223C246.142 18.7197 308.947 62.5627 418.926 41.7098C475.36 31.0051 517.105 8.407 543 -8.46252Z" fill="#00E095"/>
<path d="M533 -32.7584L425.079 -306.869L-139.532 -168.176L-31.6116 105.935C33.3875 38.5387 95.2648 16.9839 139.964 9.82639C236.142 -5.57622 298.947 38.2668 408.926 17.4139C465.36 6.70918 507.105 -15.8889 533 -32.7584Z" fill="#535FC8"/>
<path d="M-139.532 471.593L-31.6115 745.704L533 607.011L425.079 332.9C360.08 400.296 298.203 421.851 253.504 429.009C157.326 444.411 94.5204 400.568 -15.4578 421.421C-71.8918 432.126 -113.637 454.724 -139.532 471.593Z" fill="#00E095"/>
<path d="M-129.532 495.889L-21.6115 770L543 631.307L435.079 357.196C370.08 424.592 308.203 446.147 263.504 453.304C167.326 468.707 104.52 424.864 -5.4578 445.717C-61.8918 456.422 -103.637 479.02 -129.532 495.889Z" fill="#535FC8"/>
</g>
<defs>
<clipPath id="clip0_134_2681">
<rect y="465" width="465" height="415" rx="50" transform="rotate(-90 0 465)" fill="white"/>
</clipPath>
</defs>
</svg>
