<svg width="804" height="358" viewBox="0 0 804 358" fill="none" xmlns="http://www.w3.org/2000/svg">
<g clip-path="url(#clip0_134_2656)">
<path d="M-558 0H1362V358H-558V0Z" fill="#0A232E"/>
<path d="M586.256 384.963L839.315 492.951L1015.01 81.2241L761.955 -26.7641C779.275 52.5724 764.66 101.641 747.959 131.863C712.027 196.891 649.211 205.883 610.488 282.255C590.621 321.446 586.642 359.553 586.256 384.963Z" fill="#00E095"/>
<path d="M614.573 409.049L867.631 517.037L1043.33 105.311L790.272 -2.67764C807.592 76.6588 792.977 125.728 776.276 155.949C740.344 220.978 677.528 229.97 638.805 306.341C618.938 345.533 614.959 383.64 614.573 409.049Z" fill="#535FC8"/>
<path d="M208.331 -55.6903L-44.7279 -163.678L-220.427 248.048L32.6317 356.037C15.3114 276.7 29.927 227.631 46.6273 197.41C82.5597 132.381 145.376 123.389 184.099 47.0177C203.966 7.82597 207.944 -30.2809 208.331 -55.6903Z" fill="#00E095"/>
<path d="M180.014 -79.7767L-73.045 -187.765L-248.744 223.962L4.31458 331.95C-13.0058 252.614 1.60985 203.545 18.3101 173.323C54.2426 108.295 117.059 99.3028 155.781 22.9313C175.648 -16.2605 179.627 -54.3673 180.014 -79.7767Z" fill="#535FC8"/>
</g>
<defs>
<clipPath id="clip0_134_2656">
<rect width="804" height="358" rx="50" fill="white"/>
</clipPath>
</defs>
</svg>
