<svg width="415" height="1787" viewBox="0 0 415 1787" fill="none" xmlns="http://www.w3.org/2000/svg">
<g clip-path="url(#clip0_134_2758)">
<rect width="415" height="1971" rx="50" fill="#0A232E"/>
<path d="M109.537 -168.954L431.687 -360.403L743.177 163.735L421.027 355.184C430.095 244.953 401.509 181.346 373.51 143.559C313.267 62.253 226.841 61.4483 160.783 -34.668C126.891 -83.9931 114.643 -134.72 109.537 -168.954Z" fill="#00E095"/>
<path d="M154.929 -179.79L449.045 -345.956L723.211 134.419L429.095 300.584C438.884 201.147 413.947 143.048 389.169 108.298C335.855 33.5263 257.701 30.9556 199.343 -57.3259C169.4 -102.63 159.054 -148.74 154.929 -179.79Z" fill="#535FC8"/>
<path d="M109.537 -168.954L431.687 -360.403L743.177 163.735L421.027 355.184C430.095 244.953 401.509 181.346 373.51 143.559C313.267 62.253 226.841 61.4483 160.783 -34.668C126.891 -83.9931 114.643 -134.72 109.537 -168.954Z" fill="#00E095"/>
<path d="M154.929 -179.79L449.045 -345.956L723.211 134.419L429.095 300.584C438.884 201.147 413.947 143.048 389.169 108.298C335.855 33.5263 257.701 30.9556 199.343 -57.3259C169.4 -102.63 159.054 -148.74 154.929 -179.79Z" fill="#535FC8"/>
<path d="M262.812 1825.12L-73.2069 1991.03L-343.137 1444.33L-7.11809 1278.42C-24.7017 1387.62 -1.13198 1453.25 23.8542 1493.09C77.6149 1578.82 163.719 1586.32 222.128 1687.27C252.095 1739.07 260.374 1790.6 262.812 1825.12Z" fill="#00E095"/>
<path d="M216.717 1832.41L-89.3924 1975.28L-325.502 1475.1L-19.393 1332.23C-36.859 1430.61 -16.5002 1490.47 5.51045 1527.03C52.8687 1605.71 130.588 1614.33 181.929 1706.87C208.27 1754.36 215.011 1801.13 216.717 1832.41Z" fill="#535FC8"/>
</g>
<defs>
<clipPath id="clip0_134_2758">
<rect width="415" height="1787" rx="50" fill="white"/>
</clipPath>
</defs>
</svg>
