<?xml version="1.0" encoding="UTF-8"?>
<svg version="1.1" xmlns="http://www.w3.org/2000/svg" width="202" height="249">
<path d="M0 0 C66.66 0 133.32 0 202 0 C202 82.17 202 164.34 202 249 C135.34 249 68.68 249 0 249 C0 166.83 0 84.66 0 0 Z " fill="#000000" transform="translate(0,0)"/>
<path d="M0 0 C66.66 0 133.32 0 202 0 C202 82.17 202 164.34 202 249 C158.44 249 114.88 249 70 249 C73.41098876 246.7260075 76.93199323 245.40736746 80.75 244 C81.4409375 243.73960937 82.131875 243.47921875 82.84375 243.2109375 C90.1566625 240.48921443 96.79014619 238.6081436 104.625 238.625 C105.80642578 238.62741699 105.80642578 238.62741699 107.01171875 238.62988281 C115.04629884 238.79645338 122.18067152 240.73208072 129.45703125 244.15625 C137.83052422 248.04443911 148.53190525 248.79300132 157.4375 245.9375 C159.25570297 245.10018911 159.25570297 245.10018911 161 244 C162.03253906 243.37351563 162.03253906 243.37351563 163.0859375 242.734375 C177.48160099 232.73317721 187.50916413 214.60495508 194.9375 199.125 C195.31535645 198.34036377 195.69321289 197.55572754 196.08251953 196.74731445 C198.3393146 191.89123945 199.8614665 187.23367757 201 182 C200.27296875 181.731875 199.5459375 181.46375 198.796875 181.1875 C185.36450874 175.48437243 176.99692613 164.47907846 171.3125 151.515625 C166.63268731 138.98041243 167.22744275 122.34412204 172.38671875 110.078125 C176.90027155 101.46630997 182.97212213 94.62923774 190 88 C191.33683441 86.67017696 192.67108408 85.33773616 194 84 C182.3537628 70.05283448 169.36329823 62.53132893 151.04296875 60.578125 C140.8787615 60.21903623 132.46082353 62.47964198 123 66 C120.74180783 66.83722933 118.48319294 67.67267178 116.22045898 68.49755859 C114.78625039 69.02393444 113.3568656 69.56373506 111.93383789 70.11962891 C102.73995337 73.54442679 96.33652685 71.78137168 87.5625 68.125 C74.30194032 62.69018698 60.07780529 58.8417202 46 64 C45.07703125 64.33 44.1540625 64.66 43.203125 65 C25.50161281 71.82900978 14.80778694 83.52609532 6.75 100.4375 C3.06647028 109.27206193 2.08378807 118.5501286 1 128 C0.67 128 0.34 128 0 128 C0 85.76 0 43.52 0 0 Z " fill="#FDFDFD" transform="translate(0,0)"/>
<path d="M0 0 C0.33 0 0.66 0 1 0 C1.14695313 1.12792969 1.29390625 2.25585938 1.4453125 3.41796875 C5.65077094 33.70313303 16.48063781 61.31529105 36 85 C36.76570313 85.93199219 37.53140625 86.86398438 38.3203125 87.82421875 C44.26879122 94.75720178 50.41574147 99.75839188 59 103 C59 103.33 59 103.66 59 104 C39.53 104 20.06 104 0 104 C0 69.68 0 35.36 0 0 Z " fill="#FCFCFC" transform="translate(0,145)"/>
<path d="M0 0 C0.33 0 0.66 0 1 0 C1 22.11 1 44.22 1 67 C-42.56 67 -86.12 67 -131 67 C-127.58901124 64.7260075 -124.06800677 63.40736746 -120.25 62 C-119.21359375 61.60941406 -119.21359375 61.60941406 -118.15625 61.2109375 C-110.8433375 58.48921443 -104.20985381 56.6081436 -96.375 56.625 C-95.19357422 56.62741699 -95.19357422 56.62741699 -93.98828125 56.62988281 C-85.95370116 56.79645338 -78.81932848 58.73208072 -71.54296875 62.15625 C-63.16947578 66.04443911 -52.46809475 66.79300132 -43.5625 63.9375 C-41.74429703 63.10018911 -41.74429703 63.10018911 -40 62 C-39.31164062 61.58234375 -38.62328125 61.1646875 -37.9140625 60.734375 C-23.51839901 50.73317721 -13.49083587 32.60495508 -6.0625 17.125 C-5.68464355 16.34036377 -5.30678711 15.55572754 -4.91748047 14.74731445 C-2.6606854 9.89123945 -1.1385335 5.23367757 0 0 Z " fill="#FBFBFB" transform="translate(201,182)"/>
<path d="M0 0 C0.89974436 16.67026347 -3.46459921 29.28314784 -14 42.125 C-21.29718459 49.96638141 -32.04251109 56.45867422 -42.87109375 57.1953125 C-44.14146484 57.16050781 -44.14146484 57.16050781 -45.4375 57.125 C-46.30246094 57.10695312 -47.16742188 57.08890625 -48.05859375 57.0703125 C-49.01958984 57.03550781 -49.01958984 57.03550781 -50 57 C-50.85933155 42.39136368 -45.59189099 28.63050894 -35.9375 17.75 C-26.80894512 7.97414186 -13.74216272 0 0 0 Z " fill="#010101" transform="translate(150,0)"/>
</svg>
