<svg width="202" height="205" viewBox="0 0 202 205" fill="none" xmlns="http://www.w3.org/2000/svg">
<g clip-path="url(#clip0_121_5023)">
<path d="M30.9346 69.379C31.667 69.7148 32.0522 70.4667 31.7621 71.1008C31.4699 71.7417 30.6475 71.9478 29.9151 71.612C29.1693 71.2719 28.7862 70.5133 29.0763 69.8791C29.3642 69.2517 30.1867 69.0456 30.9325 69.3857L30.9346 69.379Z" fill="#FEFEFE"/>
<path d="M47.669 52.6929L46.5942 53.9527L45.0589 53.3401L44.3842 54.1339C43.4018 55.2895 42.705 56.3874 43.4603 57.6344L42.3855 58.8942L37.0193 49.9696L37.9775 48.8433L47.669 52.6929ZM43.3953 52.6869L39.5546 51.151L42.1171 55.4083C42.1052 54.4858 42.4855 53.7543 43.0877 53.0487L43.3932 52.6936L43.3953 52.6869Z" fill="#FEFEFE"/>
<path d="M49.2786 44.7569L52.508 48.1513L51.4452 49.1629L48.434 45.9932C47.588 45.1027 46.6126 45.1121 46.0502 45.6452C45.4261 46.2327 45.4066 47.4416 46.4368 48.5239L49.1318 51.3562L48.06 52.3724L42.8064 46.8398L43.8782 45.8236L44.9698 46.9697C44.5517 45.8296 44.6876 44.7687 45.3448 44.1472C46.2709 43.2627 47.8456 43.2358 49.2943 44.7544L49.2786 44.7569Z" fill="#FEFEFE"/>
<path d="M52.4096 38.5327L53.6123 37.5951L57.5241 45.9327C58.1927 47.3597 57.9504 48.335 56.9245 49.136C56.5089 49.4637 55.9751 49.6724 55.3821 49.8104L54.5864 48.4098C55.0907 48.177 55.3834 48.003 55.6775 47.7776C56.3077 47.2883 56.2728 46.766 56.0092 46.2157L55.7223 45.5988L55.2602 45.9561C54.4045 46.6184 53.4232 46.3889 52.6835 45.7248L48.2106 41.7806L49.4045 40.8476L53.1992 44.1915C53.6233 44.563 54.1686 44.6692 54.5423 44.3801L54.9867 44.032L52.4092 38.5103L52.4096 38.5327Z" fill="#FEFEFE"/>
<path d="M61.1211 30.3209L62.0126 31.8408L59.9547 33.0408L64.0607 40.0397L62.7302 40.8183L58.6242 33.8194L56.5663 35.0194L55.6748 33.4995L61.1143 30.3188L61.1211 30.3209Z" fill="#FEFEFE"/>
<path d="M62.2243 30.0483C61.9682 29.5449 62.0935 28.9622 62.5176 28.7484C62.9327 28.5392 63.4801 28.7793 63.7362 29.2828C63.981 29.7753 63.8557 30.358 63.4405 30.5672C63.0186 30.7743 62.4712 30.5341 62.2264 30.0416L62.2243 30.0483ZM66.6789 38.6173L63.2428 31.8233L64.5661 31.161L68.0022 37.955L66.6789 38.6173Z" fill="#FEFEFE"/>
<path d="M76.9873 29.1632L78.6855 33.5245L77.3064 34.058L75.748 30.0522C75.3356 28.9879 74.5192 28.4254 73.6807 28.7524C72.8511 29.0748 72.5473 30.1269 73.0899 31.5065L74.504 35.148L73.125 35.6815L71.5665 31.6757C71.1541 30.6114 70.3534 30.0465 69.4993 30.3759C68.6629 30.6961 68.3659 31.7504 68.9084 33.13L70.3226 36.7715L68.9436 37.305L66.1784 30.1976L67.5574 29.6641L68.0815 31.0082C68.1499 29.7852 68.7284 28.9906 69.5069 28.689C70.3855 28.3526 71.4619 28.6567 72.2553 29.7602C72.2155 28.3399 72.8388 27.4038 73.6929 27.0744C74.8006 26.6475 76.2419 27.2525 76.9965 29.1809L76.9873 29.1632Z" fill="#FEFEFE"/>
<path d="M84.3779 29.4755C84.8378 31.3031 84.12 32.4907 82.4438 32.9078C80.5983 33.3676 79.0491 32.0023 78.4843 29.7562C77.817 27.1071 79.0467 25.5928 80.4065 25.1198C82.0224 24.5651 83.2111 25.3345 83.5587 26.6968C83.7635 27.5026 83.7383 28.1911 82.9504 28.8971L80.705 30.8527C81.0872 31.2628 81.5395 31.4284 81.983 31.317C82.6517 31.1511 83.0919 30.6757 82.8821 29.8387L84.3733 29.4666L84.3779 29.4755ZM80.0697 29.6956L81.913 28.0719C82.1204 27.8858 82.281 27.707 82.1949 27.3463C82.0472 26.7586 81.4703 26.4943 80.922 26.6317C80.2043 26.8117 79.553 27.6722 79.9843 29.3796C80.0084 29.4909 80.0388 29.5821 80.0786 29.691L80.0697 29.6956Z" fill="#FEFEFE"/>
<path d="M96.1547 30.5631L94.5106 30.7384L93.8208 29.238L92.7843 29.3466C91.2787 29.5066 90.0127 29.824 89.7034 31.2449L88.0526 31.4181L90.3217 21.2609L91.7961 21.1058L96.1636 30.5585L96.1547 30.5631ZM93.0642 27.6202L91.3373 23.8647L90.2618 28.7102C90.8846 28.0333 91.6748 27.7651 92.5951 27.6715L93.0642 27.6202Z" fill="#FEFEFE"/>
<path d="M102.805 25.9284L102.805 30.611L101.335 30.6119L101.339 26.2419C101.343 25.0131 100.626 24.3487 99.8448 24.3531C98.9834 24.3542 98.1396 25.213 98.1424 26.7031L98.1443 30.6082L96.6608 30.6048L96.6644 22.9821L98.1479 22.9855L98.1453 24.5628C98.6249 23.4478 99.4625 22.7724 100.366 22.7773C101.651 22.7769 102.813 23.8416 102.809 25.9372L102.805 25.9284Z" fill="#FEFEFE"/>
<path d="M109.375 23.5807L110.893 23.7355L107.971 32.4633C107.468 33.9561 106.621 34.4955 105.326 34.3665C104.802 34.3114 104.266 34.1046 103.74 33.7971L104.13 32.2388C104.652 32.4191 104.991 32.4969 105.351 32.5297C106.149 32.6122 106.479 32.2053 106.669 31.6285L106.887 30.9864L106.305 30.9277C105.227 30.8157 104.677 29.9746 104.597 28.986L104.078 23.0575L105.588 23.2102L106.035 28.2417C106.088 28.7994 106.404 29.2552 106.872 29.2999L107.433 29.3589L109.378 23.5963L109.375 23.5807Z" fill="#FEFEFE"/>
<path d="M125.275 27.0936L120.84 33.7787L119.513 33.4245L119.345 28.4963L116.74 32.6866L115.419 32.3346L114.909 24.3193L116.455 24.7351L116.768 29.8355L119.432 25.5304L120.753 25.8825L120.909 30.9404L123.729 26.6778L125.275 27.0936Z" fill="#FEFEFE"/>
<path d="M131.195 32.704L129.442 37.0385L128.08 36.4883L129.718 32.4436C130.175 31.3066 129.759 30.4412 129.036 30.1455C128.239 29.8262 127.141 30.2931 126.576 31.6774L125.111 35.2952L123.735 34.7407L127.74 24.8446L129.115 25.3992L127.376 29.6933C128.24 28.841 129.267 28.5292 130.109 28.8702C131.293 29.3492 131.979 30.767 131.192 32.7107L131.195 32.704Z" fill="#FEFEFE"/>
<path d="M136.512 37.686C135.64 39.3584 134.315 39.7682 132.779 38.9702C131.09 38.094 130.841 36.0444 131.906 33.9962C133.164 31.5722 135.092 31.2498 136.425 31.7982C138.006 32.4548 138.385 33.8122 137.735 35.0659C137.353 35.8041 136.882 36.3068 135.819 36.3108L132.834 36.2908C132.849 36.8513 133.08 37.2725 133.488 37.4834C134.106 37.8052 134.743 37.7403 135.14 36.9773L136.505 37.6839L136.512 37.686ZM133.139 35.0018L135.6 35.0114C135.882 35.0119 136.123 34.9771 136.293 34.653C136.575 34.1128 136.311 33.5402 135.815 33.2792C135.159 32.9378 134.097 33.1495 133.282 34.7138C133.228 34.8151 133.186 34.8984 133.145 35.004L133.139 35.0018Z" fill="#FEFEFE"/>
<path d="M143.742 36.3473L142.854 37.7697L141.329 36.8196C140.653 36.3981 140.234 36.5984 139.779 37.3288L137.299 41.2917L136.04 40.5076L138.822 36.0623C139.571 34.8698 140.756 34.482 141.754 35.1022L143.749 36.3495L143.742 36.3473Z" fill="#FEFEFE"/>
<path d="M146.169 44.2438C145.042 45.7611 143.673 45.9572 142.284 44.9314C140.749 43.8005 140.832 41.7373 142.208 39.8768C143.833 37.6798 145.788 37.6698 147.019 38.423C148.471 39.3205 148.636 40.7212 147.794 41.8547C147.301 42.5208 146.753 42.9397 145.705 42.7781L142.767 42.2839C142.686 42.8435 142.854 43.2969 143.221 43.5687C143.78 43.9829 144.422 44.0162 144.937 43.3275L146.175 44.2459L146.169 44.2438ZM143.258 41.0615L145.687 41.4536C145.963 41.4965 146.205 41.5065 146.424 41.2129C146.786 40.7275 146.624 40.1131 146.167 39.7756C145.572 39.3351 144.49 39.3773 143.44 40.7931C143.374 40.8834 143.312 40.9602 143.258 41.0615Z" fill="#FEFEFE"/>
<path d="M161.842 58.3319C161.193 58.8081 160.345 58.7688 159.936 58.2094C159.522 57.6412 159.744 56.8226 160.393 56.3464C161.057 55.8678 161.901 55.8982 162.321 56.4686C162.73 57.028 162.508 57.8466 161.844 58.3252L161.842 58.3319Z" fill="#FEFEFE"/>
<path d="M169.014 83.736L168.495 82.1639L169.818 81.1755L169.487 80.1816C169.016 78.7428 168.436 77.5738 166.975 77.57L166.456 75.9979L176.88 76.0861L177.34 77.4914L169.005 83.7406L169.014 83.736ZM171.245 80.094L174.558 77.6249L169.589 77.5908C170.383 78.0576 170.81 78.7709 171.104 79.6491L171.251 80.0961L171.245 80.094Z" fill="#FEFEFE"/>
<path d="M174.974 89.2408L170.393 90.2266L170.083 88.7945L174.36 87.8756C175.562 87.6194 176.059 86.7767 175.891 86.0195C175.71 85.1843 174.691 84.5354 173.226 84.8489L169.404 85.6675L169.091 84.2198L176.555 82.6143L176.868 84.062L175.322 84.3945C176.516 84.6322 177.35 85.3039 177.545 86.1881C177.817 87.4375 177.03 88.7959 174.967 89.2386L174.974 89.2408Z" fill="#FEFEFE"/>
<path d="M178.674 95.1553L178.847 96.6698L169.683 95.6544C168.114 95.4757 167.409 94.7709 167.257 93.4706C167.2 92.9486 167.292 92.3776 167.473 91.8053L169.083 91.8561C169.02 92.4066 169.014 92.753 169.055 93.1143C169.146 93.9061 169.617 94.1518 170.222 94.2102L170.897 94.2833L170.83 93.6989C170.71 92.6238 171.419 91.9077 172.364 91.6216L178.058 89.8626L178.233 91.3704L173.41 92.8645C172.875 93.0285 172.499 93.4427 172.551 93.9111L172.618 94.4732L178.674 95.1553Z" fill="#FEFEFE"/>
<path d="M181.15 106.876L179.387 106.843L179.428 104.463L171.322 104.301L171.35 102.762L179.456 102.923L179.498 100.543L181.261 100.576L181.143 106.873L181.15 106.876Z" fill="#FEFEFE"/>
<path d="M171.171 107.284L178.766 107.913L178.647 109.387L171.053 108.758L171.171 107.284ZM180.809 107.975C181.374 108.021 181.808 108.432 181.77 108.902C181.733 109.372 181.241 109.705 180.676 109.659C180.127 109.611 179.694 109.2 179.731 108.73C179.769 108.26 180.26 107.927 180.811 107.968L180.809 107.975Z" fill="#FEFEFE"/>
<path d="M173.856 121.012L169.248 120.166L169.516 118.71L173.753 119.49C174.874 119.697 175.779 119.302 175.942 118.413C176.101 117.537 175.361 116.732 173.903 116.463L170.059 115.756L170.328 114.3L174.564 115.079C175.686 115.287 176.595 114.901 176.754 114.002C176.912 113.127 176.173 112.322 174.714 112.052L170.871 111.345L171.139 109.889L178.651 111.27L178.383 112.726L176.965 112.469C177.969 113.165 178.346 114.085 178.197 114.905C178.03 115.83 177.205 116.583 175.853 116.681C177.088 117.398 177.56 118.414 177.395 119.31C177.18 120.48 175.912 121.389 173.87 121.016L173.856 121.012Z" fill="#FEFEFE"/>
<path d="M169.795 127.082C167.986 126.538 167.334 125.316 167.827 123.665C168.374 121.845 170.34 121.216 172.557 121.882C175.18 122.669 175.855 124.498 175.563 125.909C175.211 127.583 173.952 128.207 172.596 127.799C171.796 127.56 171.215 127.191 171.011 126.148L170.47 123.221C169.921 123.336 169.55 123.64 169.418 124.08C169.222 124.744 169.404 125.365 170.224 125.61L169.786 127.086L169.795 127.082ZM171.804 123.273L172.264 125.686C172.317 125.962 172.392 126.194 172.745 126.298C173.328 126.475 173.85 126.115 174.007 125.572C174.218 124.861 173.815 123.859 172.121 123.351C172.013 123.317 171.918 123.287 171.806 123.266L171.804 123.273Z" fill="#FEFEFE"/>
<path d="M162.672 136.605L163.383 135.111L165.021 135.304L165.47 134.357C166.118 132.992 166.506 131.744 165.452 130.736L166.163 129.243L173.665 136.488L173.034 137.822L162.679 136.607L162.672 136.605ZM166.799 135.505L170.903 135.998L167.319 132.551C167.572 133.438 167.39 134.247 166.991 135.084L166.79 135.509L166.799 135.505Z" fill="#FEFEFE"/>
<path d="M163.185 144.68L159.185 142.242L159.954 140.989L163.685 143.268C164.729 143.91 165.673 143.646 166.077 142.981C166.524 142.249 166.233 141.082 164.953 140.298L161.619 138.264L162.389 137.004L168.908 140.982L168.137 142.241L166.789 141.414C167.491 142.407 167.63 143.466 167.161 144.244C166.496 145.337 164.983 145.776 163.188 144.673L163.185 144.68Z" fill="#FEFEFE"/>
<path d="M161.771 151.508L160.85 152.727L154.911 145.681C153.899 144.471 153.875 143.47 154.664 142.431C154.984 142.007 155.442 141.663 155.977 141.38L157.104 142.53C156.68 142.885 156.44 143.128 156.221 143.421C155.738 144.054 155.914 144.554 156.301 145.017L156.737 145.541L157.092 145.075C157.743 144.215 158.754 144.187 159.638 144.63L164.973 147.284L164.056 148.49L159.527 146.247C159.026 145.999 158.465 146.036 158.184 146.407L157.842 146.854L161.76 151.519L161.771 151.508Z" fill="#FEFEFE"/>
<path d="M150.513 163.21L147.101 155.942L148.098 154.998L152.396 157.434L150.171 153.025L151.159 152.086L158.267 155.843L157.109 156.943L152.586 154.538L154.879 159.059L153.892 159.998L149.492 157.485L151.662 162.114L150.504 163.214L150.513 163.21Z" fill="#FEFEFE"/>
<path d="M142.598 165.324L139.813 161.559L140.994 160.689L143.592 164.202C144.319 165.188 145.283 165.286 145.911 164.826C146.599 164.318 146.78 163.138 145.891 161.937L143.57 158.793L144.76 157.919L151.121 166.514L149.931 167.389L147.173 163.655C147.451 164.839 147.182 165.873 146.448 166.411C145.419 167.174 143.853 167.011 142.6 165.317L142.598 165.324Z" fill="#FEFEFE"/>
<path d="M135.573 167.232C134.595 165.61 134.937 164.274 136.422 163.381C138.054 162.402 139.933 163.264 141.125 165.242C142.535 167.586 141.806 169.393 140.64 170.238C139.255 171.236 137.893 170.849 137.169 169.642C136.742 168.929 136.56 168.263 137.107 167.355L138.686 164.833C138.196 164.551 137.722 164.527 137.329 164.758C136.733 165.117 136.453 165.696 136.896 166.429L135.577 167.218L135.573 167.232ZM139.629 165.769L138.337 167.856C138.188 168.09 138.095 168.313 138.284 168.632C138.594 169.152 139.222 169.233 139.707 168.942C140.341 168.558 140.715 167.543 139.803 166.039C139.746 165.939 139.698 165.857 139.623 165.766L139.629 165.769Z" fill="#FEFEFE"/>
<path d="M132.94 174.088L132.192 172.584L133.804 171.783C134.519 171.424 134.561 170.964 134.18 170.198L132.093 166.01L133.416 165.348L135.759 170.039C136.392 171.299 136.104 172.512 135.054 173.039L132.949 174.083L132.94 174.088Z" fill="#FEFEFE"/>
<path d="M124.943 172.035C124.229 170.282 124.78 169.012 126.381 168.364C128.144 167.648 129.867 168.794 130.732 170.936C131.762 173.47 130.752 175.135 129.476 175.79C127.948 176.558 126.673 175.969 126.138 174.658C125.826 173.885 125.753 173.203 126.432 172.396L128.384 170.147C127.947 169.794 127.473 169.695 127.055 169.867C126.415 170.13 126.047 170.658 126.368 171.449L124.938 172.026L124.943 172.035ZM129.175 171.213L127.574 173.076C127.396 173.287 127.265 173.49 127.403 173.829C127.633 174.391 128.237 174.568 128.756 174.362C129.445 174.084 129.974 173.14 129.311 171.508C129.269 171.406 129.232 171.312 129.175 171.213Z" fill="#FEFEFE"/>
<path d="M104.742 178.042C104.676 177.243 105.144 176.539 105.837 176.485C106.538 176.426 107.121 177.047 107.187 177.846C107.255 178.661 106.78 179.362 106.079 179.422C105.386 179.476 104.808 178.863 104.74 178.049L104.742 178.042Z" fill="#FEFEFE"/>
<path d="M79.2942 170.858L80.9089 171.244L81.0639 172.886L82.0857 173.129C83.5633 173.478 84.8607 173.601 85.6247 172.361L87.2394 172.747L81.7167 181.577L80.2728 181.237L79.2988 170.867L79.2942 170.858ZM81.2345 174.667L81.6155 178.781L84.2423 174.568C83.4301 174.999 82.5953 174.987 81.6903 174.774L81.2345 174.667Z" fill="#FEFEFE"/>
<path d="M71.497 173.047L73.0446 168.633L74.4348 169.118L72.9946 173.24C72.5917 174.395 73.0458 175.257 73.7792 175.519C74.5869 175.805 75.6683 175.273 76.1679 173.861L77.4605 170.181L78.8575 170.668L76.3391 177.864L74.9422 177.377L75.4653 175.891C74.6421 176.778 73.6275 177.146 72.7794 176.847C71.5691 176.427 70.8207 175.041 71.5151 173.061L71.497 173.047Z" fill="#FEFEFE"/>
<path d="M64.5127 173.115L63.129 172.469L68.7628 165.186C69.7281 163.944 70.7068 163.713 71.8921 164.259C72.3699 164.485 72.8097 164.854 73.2039 165.32L72.3184 166.662C71.879 166.315 71.5876 166.134 71.2564 165.984C70.5308 165.65 70.0808 165.923 69.7144 166.399L69.2998 166.935L69.8294 167.184C70.8142 167.637 71.0509 168.623 70.8082 169.576L69.3509 175.345L67.9717 174.708L69.2053 169.809C69.3401 169.267 69.1909 168.73 68.765 168.529L68.2534 168.292L64.517 173.102L64.5127 173.115Z" fill="#FEFEFE"/>
<path d="M53.2143 169.112L54.1602 167.627L56.1735 168.909L60.5277 162.08L61.8247 162.906L57.4705 169.735L59.4838 171.018L58.5379 172.504L53.2121 169.119L53.2143 169.112Z" fill="#FEFEFE"/>
<path d="M52.4541 168.256C52.1233 168.715 51.5416 168.864 51.1615 168.588C50.7813 168.312 50.7543 167.718 51.0851 167.26C51.4116 166.815 51.9866 166.664 52.3667 166.94C52.7469 167.216 52.7739 167.81 52.4541 168.256ZM58.0633 160.395L53.5756 166.545L52.383 165.67L56.8707 159.521L58.0633 160.395Z" fill="#FEFEFE"/>
<path d="M44.9211 155.511L48.0379 152.024L49.1427 153.011L46.2789 156.216C45.52 157.064 45.3874 158.045 46.0589 158.643C46.7236 159.239 47.801 159.025 48.7887 157.922L51.3953 155.014L52.5002 156.002L49.6363 159.206C48.8774 160.055 48.7335 161.024 49.4163 161.633C50.0811 162.229 51.1585 162.015 52.1461 160.913L54.7528 158.005L55.8576 158.992L50.7764 164.672L49.6716 163.685L50.6284 162.61C49.5082 163.1 48.5326 162.946 47.9065 162.392C47.2056 161.77 46.9895 160.671 47.6087 159.467C46.3549 160.144 45.2387 160.013 44.5558 159.404C43.671 158.612 43.5554 157.057 44.9367 155.509L44.9211 155.511Z" fill="#FEFEFE"/>
<path d="M41.8446 148.801C43.2687 147.564 44.6531 147.669 45.7851 148.969C47.0377 150.403 46.5158 152.401 44.7738 153.916C42.7117 155.715 40.8012 155.302 39.7589 154.305C38.5324 153.116 38.6741 151.709 39.7384 150.786C40.3653 150.237 40.9918 149.946 41.9823 150.334L44.747 151.448C44.9426 150.924 44.8793 150.445 44.5808 150.098C44.123 149.575 43.5028 149.401 42.8559 149.967L41.8425 148.808L41.8446 148.801ZM43.9962 152.528L41.7068 151.625C41.4501 151.521 41.2076 151.467 40.9316 151.705C40.4723 152.101 40.5022 152.732 40.8712 153.161C41.3563 153.714 42.4222 153.912 43.7536 152.755C43.8374 152.678 43.917 152.615 43.9873 152.533L43.9962 152.528Z" fill="#FEFEFE"/>
<path d="M37.4558 137.823L38.3587 139.213L37.3383 140.512L37.9067 141.389C38.7362 142.66 39.5971 143.644 41.0008 143.266L41.9038 144.656L31.8124 147.244L31.0035 146.003L37.4469 137.828L37.4558 137.823ZM36.2411 141.913L33.6776 145.153L38.487 143.914C37.6015 143.663 37.0043 143.089 36.4955 142.305L36.2411 141.913Z" fill="#FEFEFE"/>
<path d="M30.2869 134.025L34.4561 131.901L35.1251 133.209L31.2311 135.191C30.1411 135.749 29.8736 136.687 30.2266 137.377C30.6164 138.137 31.7698 138.503 33.0974 137.827L36.5763 136.055L37.2499 137.373L30.452 140.834L29.7784 139.517L31.1859 138.799C29.9744 138.875 28.99 138.444 28.5793 137.633C27.9979 136.492 28.4109 134.979 30.2801 134.023L30.2869 134.025Z" fill="#FEFEFE"/>
<path d="M25.1902 129.261L24.6313 127.839L33.7435 126.467C35.3016 126.234 36.1663 126.738 36.6504 127.951C36.8437 128.442 36.8995 129.015 36.8707 129.621L35.3011 129.983C35.2233 129.432 35.1354 129.101 35.0049 128.763C34.7138 128.019 34.1997 127.908 33.5992 127.999L32.9295 128.098L33.1416 128.647C33.5352 129.653 33.0341 130.532 32.1941 131.051L27.1547 134.21L26.6005 132.797L30.873 130.113C31.3472 129.812 31.6059 129.323 31.4336 128.883L31.2286 128.359L25.2058 129.258L25.1902 129.261Z" fill="#FEFEFE"/>
<path d="M21.0378 113.579L29.0211 114.457L29.3148 115.802L24.9998 118.198L29.9195 118.601L30.2106 119.931L23.3109 124.042L22.9737 122.483L27.3705 119.875L22.3166 119.474L22.0254 118.144L26.4604 115.697L21.375 115.138L21.0378 113.579Z" fill="#FEFEFE"/>
<path d="M23.3359 105.72L28.0014 105.309L28.1313 106.773L23.7719 107.154C22.5497 107.264 21.9642 108.034 22.0319 108.803C22.11 109.658 23.0257 110.422 24.5138 110.294L28.4084 109.95L28.5429 111.423L17.8914 112.359L17.7569 110.886L22.3776 110.476C21.2217 110.095 20.4782 109.326 20.3995 108.427C20.2837 107.153 21.2377 105.899 23.3292 105.718L23.3359 105.72Z" fill="#FEFEFE"/>
<path d="M25.3652 98.7316C27.2538 98.7448 28.2223 99.7408 28.2107 101.463C28.1952 103.363 26.481 104.509 24.1695 104.495C21.4305 104.471 20.272 102.904 20.1538 101.473C20.0247 99.7729 21.0617 98.8198 22.4692 98.8287C23.2993 98.8325 23.9646 99.0286 24.4534 99.9688L25.7921 102.631C26.2847 102.364 26.5583 101.97 26.5625 101.512C26.5675 100.817 26.2191 100.277 25.3598 100.271L25.3719 98.7337L25.3652 98.7316ZM24.5038 102.948L23.3871 100.757C23.2647 100.511 23.1207 100.31 22.7582 100.306C22.1517 100.299 21.752 100.787 21.7496 101.357C21.7453 102.096 22.4184 102.947 24.1817 102.957C24.2935 102.956 24.3965 102.959 24.5038 102.948Z" fill="#FEFEFE"/>
<path d="M20.8812 92.9021L22.5571 93.048L22.3989 94.8353C22.3328 95.6293 22.704 95.91 23.5555 95.9872L28.2202 96.3988L28.0951 97.8706L22.8659 97.4135C21.4588 97.2861 20.5705 96.4118 20.6755 95.2374L20.8812 92.9021Z" fill="#FEFEFE"/>
<path d="M26.8272 87.1626C28.6958 87.4733 29.4874 88.6059 29.2071 90.31C28.8936 92.1889 27.0184 93.0467 24.7348 92.6637C22.0361 92.2085 21.1369 90.4787 21.2491 89.0473C21.3885 87.343 22.5624 86.5666 23.9577 86.8014C24.7832 86.9371 25.4009 87.2366 25.7362 88.2394L26.6324 91.0795C27.1665 90.8932 27.4923 90.5445 27.5682 90.0943C27.6807 89.4113 27.4232 88.8185 26.5775 88.6764L26.8294 87.1559L26.8272 87.1626ZM25.3051 91.1923L24.5532 88.8572C24.4663 88.5926 24.3645 88.3751 23.9988 88.3111C23.3999 88.2101 22.932 88.6324 22.8377 89.1878C22.7169 89.92 23.2416 90.8643 24.9823 91.1567C25.0945 91.1774 25.1932 91.1939 25.303 91.199L25.3051 91.1923Z" fill="#FEFEFE"/>
<path d="M102.642 74.1021C101.9 74.2892 101.298 74.6172 100.838 74.9455C100.435 75.2327 99.8406 75.7037 99.281 76.4154C98.4293 77.4865 98.2585 78.3066 97.8764 79.0672C96.7362 81.3064 94.1046 82.1616 93.686 82.2882C90.7 83.2311 87.81 81.9743 87.1906 81.7039C85.6116 81.0182 84.7006 80.122 82.8049 80.0842C82.6572 80.0818 81.7421 80.0882 80.8334 80.3558C77.3052 81.3936 75.2925 85.0974 76.3403 88.6302C77.3881 92.163 81.0975 94.1833 84.6257 93.1455C85.5433 92.8733 86.3521 92.3591 86.4295 92.3021C87.9263 91.2799 88.2764 90.035 89.0805 88.7858C89.2596 88.5018 91.1771 85.5902 94.1477 84.8128C96.7795 84.1207 99.5495 85.2876 100.318 85.6497C101.67 86.2783 102.664 87.1489 104.469 87.1655C105.121 87.1719 105.779 87.0843 106.434 86.8918C109.962 85.854 111.975 82.1502 110.927 78.6174C109.745 74.642 105.354 73.4133 102.642 74.1021Z" fill="#00E095"/>
<path d="M79.586 98.6016C76.4023 97.5925 73.0016 99.3523 71.9944 102.53L67.6668 116.184C66.6596 119.362 68.4258 122.759 71.6096 123.768C74.7933 124.777 78.194 123.018 79.2012 119.84L83.5287 106.186C84.5359 103.008 82.7698 99.6106 79.586 98.6016Z" fill="#FEFEFE"/>
<path d="M100.574 93.2734C97.3901 92.2644 93.9894 94.0242 92.9822 97.202L85.2041 121.743C84.1969 124.921 85.9631 128.318 89.1469 129.327C92.3306 130.336 95.7313 128.576 96.7385 125.398L104.517 100.858C105.524 97.6799 103.758 94.2825 100.574 93.2734Z" fill="#FEFEFE"/>
<path d="M124.197 79.8894C121.013 78.8803 117.612 80.6401 116.605 83.818L102.816 127.325C101.809 130.502 103.575 133.9 106.759 134.909C109.942 135.918 113.343 134.158 114.35 130.98L128.14 87.4737C129.147 84.2959 127.381 80.8985 124.197 79.8894Z" fill="#FEFEFE"/>
</g>
<defs>
<clipPath id="clip0_121_5023">
<rect width="159.711" height="163.425" fill="white" transform="translate(49.376) rotate(17.5857)"/>
</clipPath>
</defs>
</svg>
