<svg width="393" height="398" viewBox="0 0 393 398" fill="none" xmlns="http://www.w3.org/2000/svg">
<path d="M60.2932 135.209C61.7206 135.863 62.4714 137.329 61.906 138.565C61.3365 139.814 59.7335 140.215 58.3062 139.561C56.8525 138.898 56.1058 137.419 56.6712 136.183C57.2324 134.961 58.8354 134.559 60.289 135.222L60.2932 135.209Z" fill="#FEFEFE"/>
<path d="M92.9097 102.687L90.8149 105.142L87.8224 103.948L86.5074 105.495C84.5927 107.747 83.2345 109.887 84.7066 112.318L82.6119 114.773L72.1529 97.3786L74.0205 95.1835L92.9097 102.687ZM84.5801 102.675L77.0943 99.6812L82.0888 107.979C82.0655 106.181 82.8067 104.755 83.9804 103.38L84.576 102.688L84.5801 102.675Z" fill="#FEFEFE"/>
<path d="M96.0472 87.2188L102.341 93.8347L100.27 95.8063L94.401 89.6284C92.752 87.8928 90.8509 87.9112 89.7549 88.9501C88.5383 90.0952 88.5004 92.4515 90.5084 94.5608L95.761 100.081L93.6721 102.062L83.4325 91.2784L85.5214 89.2979L87.649 91.5318C86.8342 89.3096 87.099 87.2419 88.3799 86.0305C90.1849 84.3066 93.2542 84.2541 96.0777 87.214L96.0472 87.2188Z" fill="#FEFEFE"/>
<path d="M102.149 75.0874L104.493 73.26L112.118 89.5106C113.421 92.2918 112.948 94.1927 110.949 95.754C110.139 96.3926 109.099 96.7993 107.943 97.0683L106.392 94.3385C107.375 93.8847 107.945 93.5456 108.518 93.1064C109.747 92.1527 109.679 91.1347 109.165 90.0622L108.606 88.8596L107.705 89.5561C106.037 90.847 104.125 90.3997 102.683 89.1052L93.965 81.4178L96.2919 79.5994L103.688 86.1168C104.515 86.8409 105.578 87.0479 106.306 86.4845L107.172 85.8059L102.148 75.0439L102.149 75.0874Z" fill="#FEFEFE"/>
<path d="M119.128 59.0826L120.866 62.0449L116.855 64.3838L124.858 78.025L122.265 79.5425L114.262 65.9013L110.251 68.2401L108.513 65.2778L119.115 59.0784L119.128 59.0826Z" fill="#FEFEFE"/>
<path d="M121.279 58.5511C120.78 57.5698 121.024 56.4342 121.85 56.0175C122.66 55.6097 123.727 56.0778 124.226 57.0591C124.703 58.019 124.459 59.1546 123.649 59.5624C122.827 59.966 121.76 59.4979 121.283 58.538L121.279 58.5511ZM129.961 75.2525L123.264 62.0107L125.843 60.7198L132.54 73.9617L129.961 75.2525Z" fill="#FEFEFE"/>
<path d="M150.052 56.8257L153.362 65.3261L150.674 66.366L147.637 58.5584C146.833 56.4841 145.242 55.3878 143.607 56.025C141.99 56.6533 141.398 58.704 142.456 61.393L145.212 68.4904L142.524 69.5303L139.487 61.7227C138.683 59.6484 137.122 58.5473 135.458 59.1893C133.827 59.8135 133.248 61.8683 134.306 64.5573L137.062 71.6547L134.374 72.6946L128.985 58.8419L131.673 57.802L132.694 60.4218C132.828 58.0381 133.955 56.4893 135.472 55.9016C137.185 55.2458 139.283 55.8385 140.829 57.9893C140.752 55.221 141.966 53.3966 143.631 52.7546C145.79 51.9226 148.599 53.1017 150.07 56.8603L150.052 56.8257Z" fill="#FEFEFE"/>
<path d="M164.457 57.4345C165.353 60.9966 163.954 63.3113 160.687 64.1243C157.09 65.0203 154.071 62.3593 152.97 57.9815C151.669 52.8184 154.066 49.8668 156.716 48.945C159.866 47.8638 162.183 49.3634 162.86 52.0187C163.259 53.5892 163.21 54.9311 161.675 56.3072L157.298 60.1187C158.043 60.918 158.925 61.2407 159.789 61.0237C161.092 60.7003 161.95 59.7737 161.541 58.1423L164.448 57.4172L164.457 57.4345ZM156.06 57.8634L159.653 54.6988C160.057 54.336 160.37 53.9875 160.202 53.2845C159.914 52.1391 158.79 51.6239 157.721 51.8917C156.322 52.2425 155.053 53.9197 155.893 57.2475C155.94 57.4645 156 57.6422 156.077 57.8545L156.06 57.8634Z" fill="#FEFEFE"/>
<path d="M187.41 59.5543L184.206 59.8961L182.862 56.9717L180.841 57.1834C177.907 57.4953 175.439 58.114 174.837 60.8832L171.619 61.2209L176.042 41.4238L178.915 41.1216L187.428 59.5454L187.41 59.5543ZM181.387 53.8185L178.021 46.4989L175.925 55.9429C177.139 54.6236 178.679 54.1009 180.473 53.9186L181.387 53.8185Z" fill="#FEFEFE"/>
<path d="M200.372 50.5213L200.372 59.648L197.507 59.6497L197.516 51.1324C197.523 48.7374 196.125 47.4424 194.603 47.451C192.924 47.4532 191.279 49.1269 191.285 52.0312L191.289 59.6426L188.397 59.6359L188.404 44.7787L191.295 44.7854L191.29 47.8597C192.225 45.6866 193.858 44.37 195.62 44.3797C198.123 44.3789 200.388 46.4541 200.381 50.5386L200.372 50.5213Z" fill="#FEFEFE"/>
<path d="M213.179 45.945L216.136 46.2468L210.441 63.2578C209.461 66.1674 207.811 67.2185 205.287 66.9672C204.264 66.8598 203.22 66.4567 202.195 65.8574L202.955 62.8202C203.972 63.1715 204.633 63.3232 205.336 63.3872C206.891 63.5479 207.533 62.7549 207.904 61.6306L208.329 60.3792L207.194 60.2647C205.093 60.0465 204.021 58.4071 203.865 56.4804L202.854 44.9253L205.798 45.2229L206.668 55.0296C206.772 56.1167 207.388 57.0049 208.301 57.092L209.393 57.2071L213.184 45.9754L213.179 45.945Z" fill="#FEFEFE"/>
<path d="M244.168 52.7922L235.525 65.8219L232.937 65.1316L232.61 55.5262L227.534 63.6933L224.959 63.0073L223.964 47.3849L226.977 48.1954L227.588 58.1364L232.779 49.7455L235.354 50.4316L235.658 60.2899L241.156 51.9818L244.168 52.7922Z" fill="#FEFEFE"/>
<path d="M255.706 63.727L252.29 72.1753L249.635 71.1028L252.828 63.2194C253.719 61.0034 252.908 59.3168 251.499 58.7403C249.946 58.1181 247.806 59.0282 246.704 61.7262L243.848 68.7774L241.166 67.6966L248.972 48.4087L251.653 49.4895L248.263 57.859C249.947 56.1978 251.948 55.5901 253.589 56.2547C255.897 57.1884 257.235 59.9518 255.702 63.7402L255.706 63.727Z" fill="#FEFEFE"/>
<path d="M266.068 73.4374C264.37 76.6969 261.787 77.4957 258.793 75.9404C255.501 74.2325 255.016 70.2378 257.092 66.2457C259.544 61.5211 263.302 60.8927 265.9 61.9617C268.981 63.2415 269.72 65.8871 268.454 68.3305C267.708 69.7694 266.79 70.7491 264.719 70.7569L258.901 70.718C258.93 71.8105 259.379 72.6314 260.175 73.0425C261.379 73.6697 262.62 73.5432 263.395 72.056L266.055 73.4332L266.068 73.4374ZM259.494 68.2058L264.292 68.2244C264.841 68.2253 265.311 68.1576 265.641 67.5259C266.192 66.473 265.678 65.3569 264.711 64.8482C263.431 64.1828 261.362 64.5955 259.773 67.6444C259.667 67.8419 259.587 68.0041 259.507 68.2099L259.494 68.2058Z" fill="#FEFEFE"/>
<path d="M280.162 70.8285L278.43 73.6008L275.457 71.749C274.141 70.9274 273.323 71.3179 272.438 72.7414L267.602 80.4653L265.15 78.9371L270.572 70.2729C272.032 67.9486 274.341 67.1929 276.287 68.4018L280.175 70.8326L280.162 70.8285Z" fill="#FEFEFE"/>
<path d="M284.89 86.2189C282.694 89.1763 280.027 89.5584 277.319 87.5592C274.328 85.355 274.489 81.3336 277.171 77.7074C280.337 73.4254 284.148 73.4059 286.548 74.8739C289.378 76.6232 289.7 79.3531 288.059 81.5624C287.098 82.8607 286.029 83.6771 283.987 83.3622L278.26 82.3989C278.102 83.4897 278.43 84.3734 279.144 84.9031C280.234 85.7105 281.486 85.7754 282.491 84.433L284.904 86.2231L284.89 86.2189ZM279.217 80.0165L283.952 80.7806C284.49 80.8644 284.961 80.8838 285.388 80.3116C286.093 79.3654 285.778 78.1681 284.887 77.5102C283.727 76.6515 281.618 76.7339 279.571 79.4933C279.443 79.6693 279.323 79.819 279.217 80.0165Z" fill="#FEFEFE"/>
<path d="M315.438 113.677C314.175 114.605 312.521 114.529 311.723 113.438C310.917 112.331 311.35 110.735 312.614 109.807C313.908 108.874 315.553 108.934 316.372 110.045C317.17 111.136 316.736 112.731 315.442 113.664L315.438 113.677Z" fill="#FEFEFE"/>
<path d="M329.418 163.191L328.407 160.127L330.985 158.201L330.34 156.264C329.421 153.459 328.291 151.181 325.443 151.174L324.432 148.109L344.748 148.281L345.645 151.02L329.4 163.2L329.418 163.191ZM333.765 156.093L340.224 151.281L330.537 151.214C332.086 152.124 332.919 153.514 333.49 155.226L333.779 156.097L333.765 156.093Z" fill="#FEFEFE"/>
<path d="M341.034 173.92L332.107 175.842L331.501 173.05L339.838 171.259C342.181 170.76 343.15 169.118 342.822 167.642C342.47 166.014 340.483 164.749 337.628 165.36L330.178 166.956L329.567 164.134L344.115 161.005L344.726 163.827L341.713 164.475C344.041 164.938 345.666 166.247 346.045 167.97C346.576 170.406 345.042 173.053 341.021 173.916L341.034 173.92Z" fill="#FEFEFE"/>
<path d="M348.246 185.448L348.583 188.4L330.721 186.421C327.663 186.072 326.29 184.699 325.994 182.164C325.882 181.147 326.061 180.034 326.415 178.919L329.552 179.018C329.429 180.091 329.417 180.766 329.498 181.47C329.674 183.013 330.593 183.492 331.772 183.606L333.087 183.748L332.956 182.609C332.724 180.514 334.106 179.118 335.947 178.561L347.045 175.132L347.387 178.071L337.986 180.983C336.944 181.303 336.211 182.11 336.312 183.023L336.442 184.118L348.246 185.448Z" fill="#FEFEFE"/>
<path d="M353.072 208.292L349.634 208.228L349.716 203.589L333.915 203.275L333.97 200.274L349.77 200.588L349.851 195.95L353.288 196.014L353.059 208.288L353.072 208.292Z" fill="#FEFEFE"/>
<path d="M333.621 209.087L348.424 210.313L348.193 213.186L333.391 211.96L333.621 209.087ZM352.407 210.435C353.507 210.524 354.353 211.326 354.279 212.241C354.206 213.157 353.248 213.806 352.148 213.718C351.078 213.624 350.233 212.822 350.306 211.906C350.379 210.991 351.337 210.341 352.411 210.422L352.407 210.435Z" fill="#FEFEFE"/>
<path d="M338.856 235.844L329.873 234.196L330.396 231.358L338.653 232.878C340.84 233.282 342.603 232.512 342.921 230.779C343.23 229.072 341.789 227.503 338.946 226.978L331.455 225.6L331.978 222.762L340.235 224.281C342.421 224.686 344.194 223.933 344.502 222.183C344.812 220.476 343.37 218.907 340.528 218.381L333.036 217.003L333.56 214.166L348.201 216.857L347.678 219.695L344.914 219.194C346.871 220.551 347.605 222.343 347.316 223.941C346.991 225.744 345.382 227.212 342.747 227.402C345.154 228.801 346.074 230.782 345.752 232.528C345.333 234.807 342.862 236.58 338.882 235.853L338.856 235.844Z" fill="#FEFEFE"/>
<path d="M330.94 247.675C327.413 246.615 326.142 244.234 327.104 241.015C328.17 237.468 332.002 236.242 336.322 237.539C341.435 239.073 342.75 242.638 342.182 245.389C341.495 248.652 339.041 249.867 336.399 249.073C334.84 248.607 333.708 247.888 333.31 245.856L332.254 240.149C331.185 240.373 330.461 240.967 330.204 241.824C329.823 243.119 330.177 244.328 331.776 244.806L330.922 247.684L330.94 247.675ZM334.855 240.251L335.751 244.954C335.856 245.493 336.002 245.943 336.69 246.147C337.825 246.492 338.843 245.79 339.15 244.732C339.56 243.345 338.775 241.393 335.472 240.404C335.262 240.337 335.078 240.279 334.859 240.238L334.855 240.251Z" fill="#FEFEFE"/>
<path d="M317.056 266.235L318.442 263.324L321.636 263.701L322.51 261.855C323.773 259.194 324.529 256.762 322.476 254.797L323.861 251.886L338.483 266.008L337.254 268.608L317.07 266.239L317.056 266.235ZM325.1 264.091L333.1 265.053L326.115 258.333C326.608 260.064 326.253 261.641 325.475 263.272L325.083 264.1L325.1 264.091Z" fill="#FEFEFE"/>
<path d="M318.057 281.975L310.261 277.222L311.758 274.78L319.031 279.222C321.065 280.473 322.906 279.959 323.693 278.664C324.565 277.236 323.998 274.962 321.502 273.435L315.004 269.469L316.506 267.014L329.211 274.766L327.709 277.222L325.081 275.609C326.449 277.544 326.721 279.609 325.807 281.124C324.509 283.254 321.561 284.111 318.061 281.962L318.057 281.975Z" fill="#FEFEFE"/>
<path d="M315.301 295.282L313.506 297.659L301.93 283.925C299.958 281.567 299.91 279.617 301.449 277.592C302.073 276.764 302.965 276.094 304.008 275.544L306.205 277.785C305.379 278.476 304.911 278.949 304.483 279.521C303.543 280.754 303.885 281.729 304.64 282.632L305.489 283.652L306.181 282.745C307.451 281.068 309.421 281.014 311.144 281.878L321.541 287.05L319.755 289.401L310.926 285.029C309.951 284.546 308.857 284.619 308.31 285.341L307.643 286.212L315.28 295.304L315.301 295.282Z" fill="#FEFEFE"/>
<path d="M293.359 318.09L286.709 303.924L288.651 302.085L297.028 306.834L292.692 298.239L294.617 296.409L308.471 303.731L306.214 305.875L297.399 301.189L301.869 310L299.943 311.83L291.369 306.932L295.598 315.955L293.342 318.099L293.359 318.09Z" fill="#FEFEFE"/>
<path d="M277.932 322.211L272.503 314.873L274.806 313.177L279.87 320.024C281.286 321.946 283.164 322.137 284.389 321.24C285.73 320.249 286.083 317.95 284.35 315.61L279.825 309.483L282.145 307.777L294.544 324.53L292.224 326.236L286.848 318.958C287.39 321.266 286.867 323.281 285.435 324.329C283.43 325.817 280.377 325.499 277.936 322.198L277.932 322.211Z" fill="#FEFEFE"/>
<path d="M264.24 325.929C262.333 322.769 263 320.164 265.895 318.425C269.075 316.516 272.738 318.197 275.06 322.052C277.808 326.62 276.388 330.141 274.116 331.789C271.416 333.734 268.761 332.98 267.351 330.627C266.519 329.237 266.163 327.94 267.23 326.17L270.308 321.253C269.353 320.705 268.428 320.657 267.663 321.108C266.5 321.808 265.955 322.935 266.819 324.364L264.248 325.903L264.24 325.929ZM272.146 323.078L269.627 327.146C269.337 327.603 269.156 328.036 269.523 328.658C270.128 329.673 271.351 329.829 272.297 329.263C273.533 328.514 274.262 326.535 272.485 323.604C272.373 323.41 272.279 323.25 272.132 323.073L272.146 323.078Z" fill="#FEFEFE"/>
<path d="M259.107 339.292L257.649 336.36L260.791 334.8C262.184 334.101 262.267 333.203 261.524 331.711L257.456 323.548L260.036 322.257L264.602 331.402C265.835 333.857 265.274 336.221 263.227 337.247L259.124 339.283L259.107 339.292Z" fill="#FEFEFE"/>
<path d="M243.521 335.29C242.129 331.875 243.203 329.399 246.324 328.135C249.761 326.741 253.118 328.975 254.804 333.148C256.812 338.088 254.843 341.334 252.355 342.61C249.378 344.107 246.892 342.958 245.85 340.404C245.242 338.897 245.1 337.567 246.423 335.994L250.228 331.611C249.376 330.922 248.453 330.731 247.638 331.065C246.39 331.579 245.673 332.608 246.299 334.149L243.512 335.273L243.521 335.29ZM251.769 333.688L248.65 337.32C248.303 337.73 248.047 338.126 248.315 338.788C248.763 339.884 249.942 340.228 250.952 339.826C252.295 339.285 253.327 337.445 252.035 334.263C251.953 334.064 251.881 333.882 251.769 333.688Z" fill="#FEFEFE"/>
<path d="M204.147 346.999C204.019 345.442 204.931 344.071 206.281 343.964C207.649 343.849 208.784 345.061 208.912 346.618C209.046 348.205 208.12 349.573 206.753 349.688C205.403 349.794 204.277 348.6 204.143 347.012L204.147 346.999Z" fill="#FEFEFE"/>
<path d="M154.549 332.998L157.696 333.75L157.998 336.95L159.99 337.423C162.87 338.104 165.398 338.343 166.887 335.926L170.034 336.678L159.27 353.888L156.456 353.227L154.558 333.015L154.549 332.998ZM158.331 340.42L159.073 348.439L164.193 340.228C162.61 341.069 160.983 341.044 159.219 340.63L158.331 340.42Z" fill="#FEFEFE"/>
<path d="M139.351 337.264L142.367 328.66L145.077 329.606L142.27 337.64C141.485 339.89 142.37 341.571 143.799 342.082C145.373 342.638 147.481 341.602 148.455 338.85L150.974 331.677L153.697 332.627L148.789 346.652L146.066 345.703L147.085 342.806C145.481 344.535 143.504 345.252 141.851 344.67C139.492 343.85 138.033 341.149 139.386 337.29L139.351 337.264Z" fill="#FEFEFE"/>
<path d="M125.738 337.397L123.042 336.138L134.022 321.943C135.904 319.521 137.811 319.072 140.121 320.136C141.053 320.576 141.91 321.295 142.678 322.203L140.952 324.818C140.096 324.142 139.528 323.789 138.882 323.498C137.468 322.848 136.591 323.378 135.877 324.307L135.069 325.351L136.101 325.837C138.02 326.719 138.482 328.642 138.009 330.499L135.168 341.743L132.48 340.502L134.885 330.953C135.147 329.895 134.857 328.85 134.026 328.457L133.029 327.997L125.747 337.371L125.738 337.397Z" fill="#FEFEFE"/>
<path d="M103.718 329.595L105.562 326.699L109.486 329.199L117.972 315.889L120.5 317.499L112.014 330.809L115.938 333.309L114.094 336.205L103.714 329.608L103.718 329.595Z" fill="#FEFEFE"/>
<path d="M102.236 327.927C101.591 328.82 100.457 329.11 99.7162 328.572C98.9753 328.034 98.9226 326.876 99.5673 325.983C100.204 325.116 101.324 324.822 102.065 325.36C102.806 325.898 102.859 327.055 102.236 327.927ZM113.168 312.604L104.421 324.59L102.097 322.886L110.844 310.9L113.168 312.604Z" fill="#FEFEFE"/>
<path d="M87.554 303.085L93.6289 296.289L95.7823 298.213L90.2004 304.458C88.7213 306.112 88.4629 308.023 89.7717 309.189C91.0673 310.35 93.1672 309.933 95.0922 307.785L100.173 302.117L102.326 304.042L96.7442 310.287C95.2652 311.941 94.9846 313.83 96.3155 315.017C97.6111 316.179 99.711 315.762 101.636 313.614L106.717 307.946L108.87 309.87L98.9665 320.941L96.8131 319.016L98.6779 316.921C96.4946 317.876 94.593 317.576 93.3728 316.496C92.0066 315.284 91.5856 313.143 92.7923 310.796C90.3487 312.116 88.173 311.859 86.8421 310.672C85.1176 309.129 84.8922 306.097 87.5845 303.08L87.554 303.085Z" fill="#FEFEFE"/>
<path d="M81.5571 290.008C84.3328 287.595 87.031 287.8 89.2374 290.334C91.6789 293.129 90.6616 297.023 87.2663 299.976C83.2471 303.482 79.5236 302.677 77.492 300.734C75.1015 298.417 75.3776 295.674 77.452 293.876C78.674 292.805 79.895 292.239 81.8255 292.995L87.2141 295.165C87.5952 294.145 87.4718 293.211 86.8902 292.535C85.998 291.516 84.7891 291.176 83.5283 292.279L81.553 290.021L81.5571 290.008ZM85.7507 297.272L81.2886 295.511C80.7883 295.309 80.3157 295.203 79.7777 295.668C78.8825 296.438 78.9407 297.669 79.66 298.504C80.6055 299.583 82.6828 299.967 85.2778 297.714C85.4412 297.564 85.5963 297.439 85.7334 297.281L85.7507 297.272Z" fill="#FEFEFE"/>
<path d="M73.0034 268.61L74.7632 271.32L72.7744 273.852L73.8822 275.56C75.4989 278.037 77.1768 279.955 79.9129 279.219L81.6728 281.929L62.0041 286.973L60.4275 284.553L72.9861 268.619L73.0034 268.61ZM70.6359 276.582L65.6395 282.898L75.0132 280.482C73.2875 279.993 72.1233 278.873 71.1317 277.346L70.6359 276.582Z" fill="#FEFEFE"/>
<path d="M59.0305 261.207L67.1566 257.068L68.4605 259.618L60.8709 263.48C58.7464 264.568 58.225 266.396 58.9129 267.74C59.6727 269.223 61.9208 269.935 64.5084 268.618L71.2889 265.164L72.6017 267.732L59.3524 274.479L58.0395 271.911L60.7828 270.513C58.4215 270.66 56.5028 269.821 55.7022 268.239C54.5691 266.017 55.3741 263.066 59.0173 261.203L59.0305 261.207Z" fill="#FEFEFE"/>
<path d="M49.0973 251.921L48.008 249.15L65.7682 246.476C68.8051 246.023 70.4905 247.005 71.4339 249.369C71.8106 250.326 71.9194 251.444 71.8634 252.624L68.8042 253.33C68.6525 252.256 68.4812 251.61 68.2268 250.952C67.6594 249.501 66.6574 249.285 65.4871 249.463L64.1817 249.655L64.595 250.725C65.3622 252.687 64.3855 254.399 62.7483 255.41L52.9263 261.568L51.846 258.814L60.1734 253.584C61.0976 252.996 61.6019 252.044 61.266 251.186L60.8665 250.164L49.1277 251.917L49.0973 251.921Z" fill="#FEFEFE"/>
<path d="M41.0042 221.356L56.5641 223.067L57.1365 225.689L48.7263 230.36L58.315 231.146L58.8825 233.737L45.4346 241.75L44.7773 238.711L53.3469 233.629L43.4966 232.846L42.929 230.255L51.5732 225.486L41.6614 224.395L41.0042 221.356Z" fill="#FEFEFE"/>
<path d="M45.4827 206.039L54.576 205.239L54.8292 208.091L46.3325 208.835C43.9503 209.048 42.809 210.549 42.9411 212.049C43.0932 213.715 44.878 215.205 47.7785 214.954L55.3693 214.284L55.6315 217.154L34.871 218.979L34.6088 216.109L43.6149 215.31C41.362 214.567 39.9129 213.068 39.7595 211.315C39.5337 208.832 41.3932 206.389 45.4695 206.035L45.4827 206.039Z" fill="#FEFEFE"/>
<path d="M49.4378 192.419C53.1188 192.444 55.0064 194.386 54.984 197.743C54.9537 201.445 51.6127 203.678 47.1074 203.651C41.7689 203.605 39.511 200.55 39.2806 197.763C39.029 194.448 41.05 192.59 43.7933 192.608C45.4113 192.615 46.708 192.997 47.6608 194.83L50.2699 200.018C51.23 199.499 51.7633 198.73 51.7714 197.837C51.7811 196.483 51.102 195.43 49.4273 195.419L49.451 192.423L49.4378 192.419ZM47.7588 200.637L45.5824 196.366C45.3439 195.886 45.0631 195.494 44.3566 195.487C43.1745 195.473 42.3955 196.425 42.3908 197.535C42.3824 198.977 43.6944 200.634 47.1311 200.655C47.3491 200.652 47.5498 200.658 47.7588 200.637Z" fill="#FEFEFE"/>
<path d="M40.6983 181.056L43.9646 181.341L43.6563 184.824C43.5274 186.372 44.251 186.919 45.9105 187.069L55.0023 187.872L54.7586 190.74L44.5665 189.849C41.824 189.601 40.0927 187.897 40.2973 185.608L40.6983 181.056Z" fill="#FEFEFE"/>
<path d="M52.2877 169.87C55.9297 170.476 57.4725 172.683 56.9262 176.005C56.3153 179.667 52.6604 181.339 48.2095 180.592C42.9496 179.705 41.197 176.334 41.4157 173.544C41.6873 170.222 43.9754 168.709 46.6949 169.166C48.3038 169.431 49.5077 170.014 50.1613 171.969L51.908 177.504C52.949 177.141 53.584 176.462 53.7319 175.584C53.9512 174.253 53.4494 173.098 51.8011 172.821L52.2919 169.857L52.2877 169.87ZM49.321 177.724L47.8555 173.173C47.6862 172.657 47.4878 172.233 46.775 172.109C45.6077 171.912 44.6958 172.735 44.5118 173.817C44.2765 175.245 45.2991 177.085 48.692 177.655C48.9106 177.695 49.103 177.727 49.3168 177.737L49.321 177.724Z" fill="#FEFEFE"/>
</svg>
