<svg width="161" height="169" viewBox="0 0 161 169" fill="none" xmlns="http://www.w3.org/2000/svg">
<path d="M72.8651 30.4486C71.5993 31.2381 70.679 32.2052 70.0204 33.0887C69.4441 33.8618 68.6213 35.0902 68.007 36.7444C67.065 39.2396 67.2367 40.8633 66.981 42.5025C66.1996 47.3373 61.826 50.4926 61.1245 50.9771C56.1455 54.5065 50.0335 53.8967 48.7228 53.7641C45.384 53.4327 43.1593 52.3124 39.6189 53.3722C39.3434 53.4559 37.6492 54.013 36.1223 55.0513C30.1936 59.0799 28.6661 67.1525 32.716 73.0838C36.7658 79.0151 44.8535 80.5534 50.7822 76.5248C52.3228 75.4727 53.5172 74.0365 53.627 73.8847C55.7953 71.0957 55.7029 68.5769 56.4507 65.7795C56.6138 65.1457 58.4368 58.5999 63.4859 55.3869C67.9572 52.534 73.793 53.0485 75.435 53.2625C78.3188 53.6231 80.6811 54.6465 84.0422 53.6012C85.2544 53.2248 86.4246 52.6697 87.525 51.9221C93.4537 47.8936 94.9812 39.8209 90.9314 33.8896C86.3684 27.2169 77.4879 27.5538 72.8651 30.4486Z" fill="#00E095"/>
<path d="M44.6815 89.6533C38.172 89.6782 32.9101 94.9707 32.935 101.468L33.042 129.385C33.0669 135.882 38.3692 141.134 44.8787 141.109C51.3882 141.084 56.65 135.792 56.6251 129.294L56.5181 101.378C56.4932 94.8803 51.191 89.6283 44.6815 89.6533Z" fill="#FEFEFE"/>
<path d="M80.4534 67.2571C73.9439 67.282 68.6821 72.5745 68.707 79.0719L68.8993 129.248C68.9242 135.745 74.2265 140.997 80.736 140.972C87.2455 140.947 92.5073 135.655 92.4824 129.157L92.2901 78.9815C92.2652 72.4841 86.9629 67.2321 80.4534 67.2571Z" fill="#FEFEFE"/>
<path d="M116.314 28.3413C109.805 28.3662 104.543 33.6587 104.568 40.1561L104.909 129.11C104.933 135.607 110.236 140.859 116.745 140.834C123.255 140.809 128.517 135.517 128.492 129.019L128.151 40.0657C128.126 33.5683 122.824 28.3163 116.314 28.3413Z" fill="#FEFEFE"/>
</svg>
